# xmcd CD database file
#
# Track frame offsets:
#	150
#	9495
#	24905
#	37540
#	52885
#	65565
#	80218
#	96706
#	108052
#	121620
#	136930
#	148864
#
# Disc length: 2240 seconds
#
# Revision: 0
# Processed by: cddbd v1.5.1PL0 Copyright (c) Steve Scherf et al.
# Submitted via: CDex 1.51
#
DISCID=9408be0c
DTITLE=Various Artist - The Great Kiwi Country
DYEAR=2003
DGENRE=Country
TTITLE0=John Grenell - Welcome To My World
TTITLE1=Patsy Riger - Beautiful Lady
TTITLE2=Brendan Dugan - Gentle On My Mind
TTITLE3=Jodi Vaughan - Blanket On The Ground
TTITLE4=Eddie Low - Cant Help It
TTITLE5=Suzanne Prentice - One Day At A Time
TTITLE6=Dennis Marsh - Padre
TTITLE7=Grey Bartlett - Massachusetts
TTITLE8=Kylie Harris - Man With A Mission
TTITLE9=Jack Rigger - Missing In Action
TTITLE10=Ginny Peaters - If It Wasn't For The Mirior
TTITLE11=Jenny Blackadder - Prairie Banjo
EXTD=YEAR: 2003
EXTT0=
EXTT1=
EXTT2=
EXTT3=
EXTT4=
EXTT5=
EXTT6=
EXTT7=
EXTT8=
EXTT9=
EXTT10=
EXTT11=
PLAYORDER=
